<svg width="1500" height="300" xmlns="http://www.w3.org/2000/svg">
 <metadata id="metadata27">image/svg+xml</metadata>

 <g>
  <title>Layer 1</title>
  <g id="g8">
   <path fill="#fac91a" d="m283.11201,6.61117l-115.361,286.357l-42.954,0l-114.542,-286.357l50.317,0l68.317,173.86c3.541,9.274 7.018,18.408 10.432,27.408c3.407,9 6.609,18.14 9.613,27.408c2.998,-9.269 6.136,-18.473 9.409,-27.613c3.273,-9.134 6.545,-18.204 9.818,-27.203l63.408,-173.86l51.543,0z" id="path4"/>
   <path fill="#fac91a" d="m483.97101,183.7125c0,21.822 -4.845,41.113 -14.522,57.886c-9.684,16.772 -22.774,29.933 -39.271,39.477c-16.504,9.549 -34.977,14.317 -55.431,14.317s-39.003,-4.769 -55.635,-14.317c-16.638,-9.544 -29.799,-22.704 -39.476,-39.477c-9.684,-16.772 -14.522,-36.063 -14.522,-57.886c0,-21.815 4.839,-41.112 14.522,-57.885c9.677,-16.772 22.838,-29.927 39.476,-39.477c16.632,-9.543 35.181,-14.317 55.635,-14.317s38.927,4.774 55.431,14.317c16.498,9.55 29.588,22.704 39.271,39.477c9.677,16.773 14.522,36.07 14.522,57.885zm-42.954,0c0.269,-14.451 -2.524,-27.203 -8.386,-38.249c-5.868,-11.045 -13.845,-19.636 -23.932,-25.771c-10.093,-6.137 -21.413,-9.205 -33.954,-9.205c-12.547,0 -23.931,3.068 -34.158,9.205c-10.227,6.136 -18.274,14.727 -24.136,25.771c-5.868,11.046 -8.661,23.798 -8.386,38.249c-0.275,14.185 2.519,26.795 8.386,37.841c5.861,11.045 13.909,19.706 24.136,25.977c10.227,6.276 21.611,9.408 34.158,9.408c12.541,0 23.861,-3.132 33.954,-9.408c10.086,-6.271 18.063,-14.932 23.932,-25.977c5.862,-11.046 8.655,-23.656 8.386,-37.841z" id="path6"/>
  </g>
  <g id="g18">
   <path fill="#ff9400" d="m554.76668,294.17983l0,-243.812l-80.181,0l0,-42.545l206.995,0l0,42.545l-82.635,0l0,243.813l-44.179,0l0,-0.001z" id="path10"/>
   <path fill="#ff9400" d="m884.89568,294.17983l-27,-71.18l-119.86,0l-26.999,71.18l-45,0l110.86,-286.357l44.999,0l110.043,286.357l-47.043,0zm-108.817,-170.996l-21.682,57.271l87.544,0l-22.499,-58.908c-3.548,-9.543 -7.096,-19.84 -10.637,-30.885c-3.547,-11.046 -7.095,-22.154 -10.636,-33.341c-3.822,11.454 -7.567,22.909 -11.25,34.363c-3.681,11.455 -7.299,21.957 -10.84,31.5z" id="path12"/>
   <path fill="#F7931E" d="m1174.93268,99.04783c0,17.182 -5.113,33.136 -15.34,47.862c-10.227,14.728 -23.523,25.638 -39.887,32.727l66.682,114.952l-53.59,-0.409l-60.545,-107.589l-65.453,0l0,107.589l-44.181,0l0,-286.357l121.907,0c14.994,0 29.383,3.683 43.158,11.046c13.768,7.363 25.088,17.865 33.953,31.499c8.86,13.64 13.296,29.863 13.296,48.68zm-97.77,-48.68l-70.363,0l0,93.68l81.816,0c13.092,0 23.248,-4.634 30.477,-13.909c7.223,-9.268 10.842,-19.77 10.842,-31.499c0,-14.995 -5.184,-26.795 -15.545,-35.386c-10.369,-8.591 -22.776,-12.886 -37.227,-12.886z" id="path14"/>
   <path fill="#F7931E" d="m1483.37768,151.00183c0,20.729 -3.412,40.026 -10.227,57.885c-6.82,17.866 -16.568,33.481 -29.25,46.84c-12.682,13.366 -27.549,23.798 -44.59,31.295c-17.047,7.498 -35.793,11.25 -56.248,11.25c-20.453,0 -39.271,-3.752 -56.453,-11.25c-17.182,-7.497 -32.049,-17.929 -44.59,-31.295c-12.547,-13.358 -22.23,-28.974 -29.045,-46.84c-6.82,-17.858 -10.227,-37.155 -10.227,-57.885c0,-20.723 3.406,-40.02 10.227,-57.885c6.814,-17.859 16.498,-33.475 29.045,-46.84c12.541,-13.359 27.408,-23.791 44.59,-31.295c17.182,-7.497 36,-11.25 56.453,-11.25c20.455,0 39.201,3.753 56.248,11.25c17.041,7.504 31.908,17.936 44.59,31.295c12.682,13.365 22.43,28.98 29.25,46.84c6.815,17.865 10.227,37.162 10.227,57.885zm-44.998,0c0,-19.904 -4.092,-37.699 -12.273,-53.385c-8.182,-15.68 -19.432,-28.086 -33.748,-37.227c-14.318,-9.134 -30.752,-13.704 -49.295,-13.704c-18.818,0 -35.385,4.57 -49.703,13.704c-14.318,9.141 -25.504,21.547 -33.545,37.227c-8.047,15.686 -12.068,33.48 -12.068,53.385c0,19.911 4.021,37.706 12.068,53.386c8.041,15.686 19.227,28.092 33.545,37.226c14.318,9.141 30.885,13.705 49.703,13.705c18.543,0 34.977,-4.564 49.295,-13.705c14.316,-9.134 25.566,-21.61 33.748,-37.431c8.181,-15.814 12.273,-33.546 12.273,-53.181z" id="path16"/>
  </g>
 </g>
</svg>